<svg width="35" height="35" viewBox="0 0 35 35" fill="none" xmlns="http://www.w3.org/2000/svg">
<circle cx="17.5" cy="17.5" r="17.5" fill="#74419A"/>
<path d="M6.81773 13.1365C6.81773 11.9881 7.14581 11.0076 7.83413 10.3027L9.03137 11.5284C7.69873 12.8876 8.86287 17.1135 12.6569 21.0018C16.4509 24.8894 20.5815 26.0794 21.9133 24.7178L23.1106 25.9434C20.8645 28.2428 15.7479 26.6112 11.4659 22.2263C8.49516 19.1838 6.81773 15.7322 6.81773 13.1366V13.1365Z" fill="white"/>
<path d="M14.3683 26.9998C13.2463 26.9998 12.2886 26.664 11.5989 25.9593L12.7961 24.7336C14.1262 26.0953 18.2542 24.9041 22.052 21.0171C25.8496 17.1305 27.0114 12.9046 25.6812 11.543L26.8785 10.3174C29.1258 12.6168 27.5307 17.854 23.2467 22.2382C20.2753 25.2838 16.9036 26.9998 14.3681 26.9998H14.3683Z" fill="white"/>
<path d="M23.6433 20.4845C22.9163 18.3421 21.4322 16.0529 19.4623 14.0377C15.1795 9.65199 10.0636 8.01955 7.81748 10.3204C7.65853 10.4845 7.79621 10.8905 8.12678 11.228C8.45724 11.5664 8.85328 11.7062 9.01286 11.5435C10.3443 10.1818 14.4723 11.373 18.2686 15.2606C20.0646 17.0991 21.4034 19.1522 22.0482 21.052C22.6138 22.7181 22.5582 24.0613 21.8998 24.7354C21.7396 24.8981 21.8786 25.3054 22.2079 25.6423C22.5372 25.9795 22.9344 26.1212 23.0953 25.9571C24.2458 24.7792 24.4409 22.8329 23.6433 20.4844V20.4845Z" fill="white"/>
<path d="M26.876 10.3201C25.7232 9.13976 23.8242 8.93986 21.5276 9.75699C19.4362 10.5001 17.1987 12.0213 15.2301 14.0361C10.9472 18.4204 9.35292 23.6575 11.5989 25.9583C11.7592 26.121 12.1558 25.9807 12.4856 25.6435C12.8161 25.3065 12.9539 24.8993 12.7937 24.7352C11.4599 23.3735 12.6272 19.1475 16.425 15.2591C18.2209 13.4206 20.2262 12.0506 22.0821 11.39C23.7095 10.8129 25.0216 10.8678 25.6814 11.542C25.8403 11.7047 26.2381 11.5644 26.5675 11.2261C26.8968 10.8876 27.0352 10.483 26.8761 10.3203L26.876 10.3201Z" fill="white"/>
</svg>
